<svg id="Layer_1" data-name="Layer 1" xmlns="http://www.w3.org/2000/svg" xmlns:xlink="http://www.w3.org/1999/xlink" viewBox="0 0 108.48 73.15"><defs><style>.cls-1{fill:none;}.cls-2{clip-path:url(#clip-path);}.cls-3{fill:url(#linear-gradient);}.cls-4{fill:url(#linear-gradient-2);}</style><clipPath id="clip-path"><path class="cls-1" d="M107.65,39.92H.88V33.23H107.65ZM107.57,1H.88V72.15H107.57Z"/></clipPath><linearGradient id="linear-gradient" x1="1" y1="36.58" x2="72" y2="36.58" gradientUnits="userSpaceOnUse"><stop offset="0" stop-color="#3b3b3d"/><stop offset="1" stop-color="#cfd0d2"/></linearGradient><linearGradient id="linear-gradient-2" x1="36.48" y1="36.58" x2="107.48" y2="36.58" gradientUnits="userSpaceOnUse"><stop offset="0" stop-color="#396eb5"/><stop offset="1" stop-color="#20386c"/></linearGradient></defs><g class="cls-2"><path class="cls-3" d="M72,36.58A35.5,35.5,0,1,1,36.5,1,35.54,35.54,0,0,1,72,36.58ZM36.5,8.85c-15,0-27.13,12.41-27.13,27.73S21.52,64.3,36.5,64.3,63.63,51.89,63.63,36.58,51.48,8.85,36.5,8.85Z"/><path class="cls-4" d="M107.48,36.58A35.5,35.5,0,1,1,72,1,35.54,35.54,0,0,1,107.48,36.58ZM72,8.85c-15,0-27.13,12.41-27.13,27.73S57,64.3,72,64.3,99.1,51.89,99.1,36.58,87,8.85,72,8.85Z"/></g></svg>